<svg width="140" height="140" viewBox="0 0 140 140" fill="none" xmlns="http://www.w3.org/2000/svg">
<rect width="140" height="140" rx="35" fill="#1890FF"/>
<path d="M40.2657 79.457H28.83C27.8238 79.457 27 80.2814 27 81.2883C27 82.2952 27.8238 83.1188 28.83 83.1188H41.0895C40.5408 82.204 40.2665 81.105 40.2665 80.0069L40.2657 79.457ZM31.3918 76.4355H40.2657V76.0697C40.2657 74.9716 40.3568 73.8727 40.6312 72.8658H31.3918C30.907 72.8671 30.4424 73.0603 30.0995 73.4033C29.7567 73.7463 29.5633 74.2111 29.5618 74.6962C29.5618 75.6119 30.3856 76.4355 31.3918 76.4355ZM33.9527 66.0912C32.9466 66.0912 32.1236 66.9157 32.1236 67.9225C32.1236 68.9294 32.9466 69.7539 33.9527 69.7539H41.8205C42.5561 68.3844 43.5143 67.1469 44.6558 66.0921L33.9527 66.0912ZM102.931 65.7255H96.3442L87.2863 56.296C85.2749 54.1902 82.4387 53 79.5115 53H66.1546C61.6717 53 57.5551 55.8382 56.0003 60.0499L53.896 65.7255H53.804C48.1334 65.7255 43.4664 70.3038 43.4664 76.0706V80.099C43.4655 80.5441 43.5524 80.9851 43.7222 81.3966C43.892 81.808 44.1413 82.1819 44.4559 82.4966C44.7705 82.8114 45.1441 83.0608 45.5553 83.2306C45.9665 83.4005 46.4072 83.4873 46.8521 83.4862H49.4139C50.0537 88.247 54.0791 92 59.0196 92C63.96 92 67.9846 88.247 68.6244 83.4862H88.842C89.4827 88.247 93.5081 92 98.4477 92C103.387 92 107.414 88.247 108.053 83.4862H110.615C111.06 83.4872 111.501 83.4003 111.912 83.2304C112.323 83.0605 112.696 82.8111 113.011 82.4963C113.325 82.1816 113.575 81.8078 113.744 81.3964C113.914 80.985 114.001 80.5441 114 80.099V76.8029C113.908 70.6695 108.968 65.7255 102.931 65.7255ZM59.0196 86.5077C56.6409 86.5077 54.7198 84.5852 54.7198 82.2048C54.7198 79.8244 56.6409 77.9019 59.0187 77.9019C61.3965 77.9019 63.3185 79.8244 63.3185 82.204C63.3185 84.5835 61.3974 86.5077 59.0196 86.5077ZM59.6594 65.7255L61.123 61.8804C61.9469 59.7745 63.9592 58.3098 66.2475 58.3098H69.3571L70.8207 65.7255H59.6594ZM76.2178 65.7255L74.7533 58.3098H79.5106C80.9743 58.3098 82.4379 58.9509 83.4441 59.9587L88.9332 65.7255H76.2178ZM98.4485 86.5077C96.0691 86.5077 94.1479 84.5852 94.1479 82.2048C94.1479 79.8244 96.0691 77.9019 98.4477 77.9019C100.826 77.9019 102.747 79.8244 102.747 82.204C102.747 84.5835 100.826 86.5077 98.4485 86.5077Z" fill="white"/>
</svg>