<svg width="14" height="13" viewBox="0 0 14 13" fill="none" xmlns="http://www.w3.org/2000/svg">
<path d="M3.02734 8.60547C4.41016 8.04297 5.73438 7.76172 7 7.76172C8.26562 7.76172 9.57812 8.04297 10.9375 8.60547C12.3203 9.14453 13.0117 9.85938 13.0117 10.75V12.2617H0.988281V10.75C0.988281 9.85938 1.66797 9.14453 3.02734 8.60547ZM9.10938 5.37109C8.52344 5.95703 7.82031 6.25 7 6.25C6.17969 6.25 5.47656 5.95703 4.89062 5.37109C4.30469 4.78516 4.01172 4.08203 4.01172 3.26172C4.01172 2.44141 4.30469 1.73828 4.89062 1.15234C5.47656 0.542969 6.17969 0.238281 7 0.238281C7.82031 0.238281 8.52344 0.542969 9.10938 1.15234C9.69531 1.73828 9.98828 2.44141 9.98828 3.26172C9.98828 4.08203 9.69531 4.78516 9.10938 5.37109Z" fill="#9A9EA7"/>
</svg>
