<svg width="24" height="24" viewBox="0 0 24 24" fill="none" xmlns="http://www.w3.org/2000/svg">
<path d="M15.375 7.5V5.25C15.375 4.65326 15.1379 4.08097 14.716 3.65901C14.294 3.23705 13.7217 3 13.125 3H5.25C4.65326 3 4.08097 3.23705 3.65901 3.65901C3.23705 4.08097 3 4.65326 3 5.25V18.75C3 19.3467 3.23705 19.919 3.65901 20.341C4.08097 20.7629 4.65326 21 5.25 21H13.125C13.7217 21 14.294 20.7629 14.716 20.341C15.1379 19.919 15.375 19.3467 15.375 18.75V16.5" stroke="#0F172A" stroke-width="1.5" stroke-linecap="round" stroke-linejoin="round"/>
<path d="M9 12H22L19.2143 9M19.2143 15L22 12" stroke="#0F172A" stroke-width="1.5" stroke-linecap="round" stroke-linejoin="round"/>
</svg>
