<svg width="711" height="140" viewBox="0 0 711 140" fill="none" xmlns="http://www.w3.org/2000/svg">
<g clip-path="url(#clip0_14_3)">
<path d="M173 75.01C173 68.2027 174.412 62.1668 177.236 56.9023C180.068 51.6379 183.926 47.5885 188.813 44.7542C193.705 41.9188 199.147 40.501 205.137 40.501C209.689 40.501 214.033 41.4525 218.17 43.3553C222.299 45.264 225.586 47.7967 228.029 50.9534V19H246V108.901H228.03V98.9407C225.84 102.264 222.765 104.938 218.803 106.963C214.834 108.988 210.235 110 205.008 110C199.104 110 193.706 108.541 188.814 105.623C183.927 102.704 180.069 98.5936 177.237 93.2904C174.412 87.9871 173 81.8937 173 75.01ZM228.159 75.2505C228.159 71.1177 227.316 67.5729 225.629 64.6158C223.943 61.6653 221.667 59.3995 218.802 57.8185C215.93 56.2369 212.851 55.4462 209.564 55.4462C206.272 55.4462 203.237 56.2176 200.459 57.7604C197.675 59.2967 195.416 61.5431 193.682 64.4996C191.955 67.4566 191.091 70.9598 191.091 75.0091C191.091 79.0591 191.955 82.6011 193.682 85.635C195.416 88.6754 197.694 91.0055 200.519 92.6253C203.344 94.245 206.359 95.0549 209.565 95.0549C212.852 95.0549 215.931 94.2644 218.803 92.6834C221.667 91.1018 223.943 88.8328 225.629 85.8764C227.316 82.9258 228.159 79.3839 228.159 75.2505Z" fill="white"/>
<path d="M276.613 52.3703C278.877 48.8233 281.832 46.0413 285.48 44.0244C289.127 42.0081 293.301 41 298 41V58.7851H293.347C287.809 58.7851 283.636 60.0368 280.827 62.5404C278.018 65.0369 276.613 69.3935 276.613 75.6102V109H259V41.9695H276.613V52.3703Z" fill="white"/>
<path d="M314.505 33.8699C311.494 33.8699 308.991 32.9209 306.995 31.0229C304.998 29.125 304 26.7624 304 23.9354C304 21.1078 304.998 18.7449 306.995 16.847C308.991 14.949 311.494 14 314.505 14C317.515 14 320.019 14.949 322.016 16.847C324.005 18.7449 325 21.1078 325 23.9354C325 26.763 324.005 29.1255 322.016 31.0229C320.02 32.9209 317.516 33.8699 314.505 33.8699ZM322.926 41.8713V109H305.831V41.8713H322.926Z" fill="white"/>
<path d="M365.565 93.4024L383.218 42.0009H402L376.153 109H354.717L329 42H347.913L365.565 93.4024Z" fill="white"/>
<path d="M472 74.0551C472 76.4673 471.834 78.6369 471.502 80.564H420.781C421.199 85.389 422.952 89.1702 426.039 91.9077C429.127 94.6389 432.927 96.0044 437.44 96.0044C443.954 96.0044 448.586 93.3115 451.335 87.9256H470.25C468.249 94.3581 464.409 99.6454 458.73 103.788C453.051 107.93 446.081 110.001 437.818 110C431.138 110 425.145 108.571 419.837 105.712C414.536 102.859 410.404 98.8189 407.443 93.5922C404.481 88.3656 403 82.3348 403 75.5C403 68.5824 404.461 62.5102 407.383 57.2836C410.305 52.0569 414.397 48.0366 419.658 45.2226C424.913 42.4075 430.966 41 437.818 41C444.411 41 450.315 42.3691 455.53 45.1072C460.752 47.8383 464.804 51.7184 467.686 56.7474C470.562 61.77 472 67.5393 472 74.0551ZM453.84 69.2299C453.761 64.8842 452.134 61.4062 448.96 58.7958C445.786 56.1795 441.903 54.8714 437.311 54.8714C432.97 54.8714 429.319 56.1381 426.357 58.6716C423.389 61.205 421.573 64.7245 420.91 69.2299H453.84Z" fill="white"/>
<path d="M520.003 40.6501C525.255 40.6501 529.921 41.7633 534.002 43.9899C538.083 46.2229 541.272 49.508 543.567 53.8452C545.856 58.1825 547 63.3916 547 69.4727V109H529.498V71.7877C529.498 66.4339 528.125 62.3189 525.38 59.4427C522.629 56.5595 518.878 55.1178 514.129 55.1178C509.294 55.1178 505.481 56.5595 502.688 59.4427C499.898 62.3189 498.502 66.4339 498.502 71.7877V108.998H481V19H498.502V50.0124C500.751 47.0974 503.751 44.8068 507.501 43.1406C511.252 41.4802 515.42 40.6501 520.003 40.6501Z" fill="white"/>
<path d="M626 42V109.154H608.371V100.668C606.123 103.58 603.186 105.864 599.562 107.519C595.938 109.173 592 110.001 587.748 110C582.331 110 577.539 108.89 573.373 106.671C569.206 104.446 565.936 101.172 563.562 96.849C561.187 92.526 560 87.3755 560 81.3976V42H577.499V78.9733C577.499 84.3031 578.875 88.4046 581.627 91.2778C584.378 94.1451 588.128 95.5788 592.876 95.5788C597.71 95.5788 601.503 94.1454 604.254 91.2787C606.999 88.4049 608.371 84.3028 608.371 78.9724V42.0009L626 42Z" fill="white"/>
<path d="M656.501 51.4344C658.749 48.1949 661.851 45.5626 665.807 43.5376C669.769 41.5127 674.293 40.5002 679.38 40.5002C685.293 40.5002 690.647 41.9176 695.443 44.7525C700.231 47.5873 704.021 51.6176 706.813 56.8433C709.604 62.0696 711 68.1246 711 75.0083C711 81.8931 709.604 87.9868 706.812 93.2895C704.02 98.5922 700.231 102.703 695.444 105.623C690.648 108.541 685.294 110 679.381 110C674.208 110 669.684 109.007 665.808 107.021C661.938 105.034 658.836 102.463 656.502 99.3072V108.901H639V19H656.502L656.501 51.4344ZM693.131 75.0083C693.131 70.9589 692.275 67.4557 690.561 64.4987C688.855 61.5423 686.606 59.2959 683.814 57.7595C681.024 56.2167 678.001 55.4453 674.747 55.4453C671.585 55.4453 668.605 56.2361 665.807 57.8176C663.015 59.3986 660.767 61.687 659.061 64.6828C657.355 67.6786 656.501 71.2009 656.501 75.2496C656.501 79.2996 657.354 82.8222 659.061 85.8174C660.767 88.8126 663.015 91.101 665.807 92.6825C668.605 94.2635 671.585 95.054 674.747 95.054C678.001 95.054 681.024 94.2441 683.814 92.6244C686.606 91.0046 688.855 88.6972 690.561 85.702C692.275 82.6997 693.131 79.1346 693.131 75.0083Z" fill="white"/>
<rect width="140" height="140" rx="35" fill="white"/>
<path d="M40.2657 79.457H28.83C27.8238 79.457 27 80.2814 27 81.2883C27 82.2952 27.8238 83.1188 28.83 83.1188H41.0895C40.5408 82.204 40.2665 81.105 40.2665 80.0069L40.2657 79.457ZM31.3918 76.4355H40.2657V76.0697C40.2657 74.9716 40.3568 73.8727 40.6312 72.8658H31.3918C30.907 72.8671 30.4424 73.0603 30.0995 73.4033C29.7567 73.7463 29.5633 74.2111 29.5618 74.6962C29.5618 75.6119 30.3856 76.4355 31.3918 76.4355ZM33.9527 66.0912C32.9466 66.0912 32.1236 66.9157 32.1236 67.9225C32.1236 68.9294 32.9466 69.7539 33.9527 69.7539H41.8205C42.5561 68.3844 43.5143 67.1469 44.6558 66.0921L33.9527 66.0912ZM102.931 65.7255H96.3442L87.2863 56.296C85.2749 54.1902 82.4387 53 79.5115 53H66.1546C61.6717 53 57.5551 55.8382 56.0003 60.0499L53.896 65.7255H53.804C48.1334 65.7255 43.4664 70.3038 43.4664 76.0706V80.099C43.4655 80.5441 43.5523 80.9851 43.7222 81.3966C43.892 81.808 44.1413 82.1819 44.4559 82.4966C44.7705 82.8114 45.1441 83.0608 45.5553 83.2306C45.9665 83.4005 46.4072 83.4873 46.8521 83.4862H49.4139C50.0537 88.247 54.0791 92 59.0196 92C63.96 92 67.9846 88.247 68.6244 83.4862H88.842C89.4827 88.247 93.5081 92 98.4477 92C103.387 92 107.414 88.247 108.053 83.4862H110.615C111.06 83.4872 111.501 83.4003 111.912 83.2304C112.323 83.0605 112.696 82.8111 113.011 82.4963C113.325 82.1816 113.575 81.8078 113.744 81.3964C113.914 80.985 114.001 80.5441 114 80.099V76.8029C113.908 70.6695 108.968 65.7255 102.931 65.7255ZM59.0196 86.5077C56.6409 86.5077 54.7198 84.5852 54.7198 82.2048C54.7198 79.8244 56.6409 77.9019 59.0187 77.9019C61.3965 77.9019 63.3185 79.8244 63.3185 82.204C63.3185 84.5835 61.3974 86.5077 59.0196 86.5077ZM59.6594 65.7255L61.123 61.8804C61.9469 59.7745 63.9592 58.3098 66.2475 58.3098H69.3571L70.8207 65.7255H59.6594ZM76.2178 65.7255L74.7534 58.3098H79.5106C80.9743 58.3098 82.4379 58.9509 83.4441 59.9587L88.9332 65.7255H76.2178ZM98.4485 86.5077C96.0691 86.5077 94.1479 84.5852 94.1479 82.2048C94.1479 79.8244 96.0691 77.9019 98.4477 77.9019C100.826 77.9019 102.747 79.8244 102.747 82.204C102.747 84.5835 100.826 86.5077 98.4485 86.5077Z" fill="#1890FF"/>
</g>
<defs>
<clipPath id="clip0_14_3">
<rect width="711" height="140" fill="white"/>
</clipPath>
</defs>
</svg>
