<svg width="38" height="38" viewBox="0 0 38 38" fill="none" xmlns="http://www.w3.org/2000/svg">
<g clip-path="url(#clip0_4460_11036)">
<rect width="38" height="38" rx="8" fill="#F5F6F7"/>
<path d="M15.0988 13.0003C17.6977 13.0003 20.2764 12.9993 22.855 13.001C23.5593 13.0015 24.2746 13.4975 24.538 14.2056C24.776 14.8454 25.044 15.4738 25.2992 16.1084C25.6014 16.0386 25.8964 15.9725 26.1904 15.9021C26.5787 15.8092 26.9148 16.0612 26.9653 16.4029C27.0085 16.6947 27.0161 17.007 26.9609 17.2947C26.893 17.6487 26.6045 17.9691 26.0945 17.9632C26.2132 18.3979 26.346 18.8356 26.449 19.2803C26.5099 19.5427 26.552 19.8161 26.5539 20.0849C26.5638 21.5371 26.5499 22.9895 26.5633 24.4417C26.568 24.9523 26.0996 25.3277 25.7025 25.3069C25.3171 25.2866 24.9298 25.2964 24.5435 25.3041C24.1354 25.3123 23.7228 24.8963 23.7323 24.4799C23.7402 24.1332 23.7339 23.7862 23.7339 23.4317C20.566 23.4317 17.4152 23.4317 14.248 23.4317C14.248 23.7372 14.2644 24.0355 14.2443 24.3313C14.211 24.8229 14.0882 25.1074 13.5739 25.2791C13.5165 25.2982 13.452 25.3012 13.3907 25.3015C13.0183 25.3035 12.6455 25.2914 12.2737 25.3054C11.8404 25.3217 11.3817 24.9372 11.3814 24.4111C11.3808 23.0087 11.3595 21.6058 11.3899 20.204C11.4063 19.4503 11.5814 18.7149 11.8797 18.0167C11.8846 18.0051 11.8803 17.9895 11.8803 17.9646C11.5015 17.9571 11.2139 17.792 11.0575 17.4304C11.0255 17.3564 11.0067 17.2713 11.0042 17.1906C10.9972 16.963 11.0008 16.7351 11.002 16.5073C11.004 16.1138 11.3719 15.8166 11.7492 15.9015C12.0392 15.9668 12.3296 16.0305 12.653 16.1022C12.7274 15.9226 12.8098 15.7148 12.8991 15.5101C13.15 14.9348 13.3631 14.3375 13.6678 13.793C13.9625 13.2662 14.484 13.0385 15.0988 13.0003ZM20.1714 13.7265C18.6473 13.7265 17.1231 13.7278 15.5989 13.7257C15.1088 13.7251 14.7533 13.9512 14.5523 14.3931C14.3492 14.8399 14.1841 15.3042 13.9938 15.7572C13.7795 16.2674 13.5488 16.7706 13.3405 17.2832C13.2836 17.4234 13.2418 17.5926 13.2633 17.7378C13.302 17.999 13.4459 18.0834 13.734 18.0834C17.2249 18.0835 20.7158 18.0835 24.2067 18.0835C24.2489 18.0835 24.2931 18.092 24.3328 18.0819C24.5829 18.0188 24.7951 17.8505 24.6655 17.5462C24.5963 17.3835 24.5564 17.2081 24.49 17.044C24.17 16.2527 23.8254 15.4709 23.5288 14.6708C23.2851 14.0133 22.8563 13.697 22.1942 13.7212C21.5348 13.7453 20.8739 13.7265 20.1714 13.7265ZM21.8367 20.4242C21.8367 20.7086 21.8333 20.9931 21.8377 21.2775C21.8423 21.5848 21.9855 21.7538 22.2549 21.7555C23.0057 21.7601 23.7568 21.7641 24.5075 21.7518C24.6826 21.7489 24.8694 21.6988 24.8751 21.4496C24.8841 21.063 24.9248 20.6747 24.8994 20.2907C24.8804 20.0038 24.7347 19.9207 24.4338 19.9205C23.746 19.9199 23.0582 19.9222 22.3705 19.9194C22.0498 19.9182 21.8759 19.966 21.8367 20.4242ZM14.0163 21.7571C14.564 21.7571 15.1116 21.7587 15.6593 21.7563C15.9088 21.7552 16.0837 21.6002 16.0668 21.3497C16.0433 21.0027 16.0617 20.6529 16.0606 20.3043C16.0598 20.0522 15.952 19.9248 15.7035 19.9227C14.9452 19.9162 14.1869 19.9178 13.4286 19.9219C13.2216 19.923 13.0528 20.0331 13.0396 20.2413C13.0144 20.6376 13.0148 21.0377 13.0388 21.4341C13.0514 21.6439 13.2211 21.7509 13.4476 21.7562C13.6231 21.7603 13.7987 21.7571 14.0163 21.7571Z" fill="#9A9EA7"/>
</g>
<defs>
<clipPath id="clip0_4460_11036">
<rect width="38" height="38" fill="white"/>
</clipPath>
</defs>
</svg>
