<svg width="38" height="38" viewBox="0 0 38 38" fill="none" xmlns="http://www.w3.org/2000/svg">
<g clip-path="url(#clip0_4460_11063)">
<rect width="38" height="38" rx="8" fill="#F5F6F7"/>
<path fill-rule="evenodd" clip-rule="evenodd" d="M18.1403 11.5401C18.5846 10.8327 19.055 10.8074 19.4993 11.5401C19.5532 11.6175 19.6078 11.696 19.663 11.7754C21.6986 14.7001 24.6216 18.8999 24.6216 21.0643C24.6216 22.6053 23.9682 24.0201 22.9229 25.0306C21.8775 26.0411 20.414 26.6727 18.8198 26.6727C17.2256 26.6727 15.7621 26.0411 14.7167 25.0306C13.6713 24.0201 13.018 22.6053 13.018 21.0643C13.018 18.9024 16.0015 14.6142 18.0392 11.6854C18.0732 11.6366 18.1069 11.5881 18.1403 11.5401ZM21.2503 25.2074C21.982 24.8032 22.5831 24.2222 23.0013 23.5653C23.4194 22.8832 23.6808 22.1253 23.733 21.3169C23.7592 20.938 23.4717 20.6348 23.0797 20.6095C22.6877 20.5843 22.3741 20.8622 22.3479 21.2411C22.3218 21.8222 22.1388 22.378 21.8252 22.858C21.5116 23.338 21.0935 23.7422 20.5708 24.0201C20.231 24.1969 20.1004 24.6011 20.3094 24.9548C20.4924 25.2832 20.9105 25.3843 21.2503 25.2074Z" fill="#9A9EA7"/>
</g>
<defs>
<clipPath id="clip0_4460_11063">
<rect width="38" height="38" fill="white"/>
</clipPath>
</defs>
</svg>
