<svg width="38" height="38" viewBox="0 0 38 38" fill="none" xmlns="http://www.w3.org/2000/svg">
<g clip-path="url(#clip0_4460_11074)">
<rect width="38" height="38" rx="8" fill="#F5F6F7"/>
<path d="M11.5 17.3333V22.3333V17.3333ZM19 13.1667V15.6667V13.1667ZM17.3333 13.1667H20.6667H17.3333ZM13.1667 19.8333H11.5H13.1667ZM14 17.3333H15.6667L17.3333 15.6667H20.1517C20.3064 15.6668 20.458 15.7099 20.5896 15.7913C20.7212 15.8727 20.8275 15.9891 20.8967 16.1275L22.1033 18.5392C22.1725 18.6776 22.2788 18.794 22.4104 18.8754C22.542 18.9568 22.6936 18.9999 22.8483 19H24V17.3333H25.6667C25.8877 17.3333 26.0996 17.4211 26.2559 17.5774C26.4122 17.7337 26.5 17.9457 26.5 18.1667V23.1667C26.5 23.3877 26.4122 23.5996 26.2559 23.7559C26.0996 23.9122 25.8877 24 25.6667 24H24V22.3333H21.5V24C21.5 24.221 21.4122 24.433 21.2559 24.5893C21.0996 24.7455 20.8877 24.8333 20.6667 24.8333H17.7792C17.642 24.8334 17.507 24.7995 17.386 24.7348C17.2651 24.6701 17.162 24.5766 17.0858 24.4625L15.6667 22.3333H14V17.3333Z" stroke="#9A9EA7" stroke-width="1.5" stroke-linecap="round" stroke-linejoin="round"/>
</g>
<defs>
<clipPath id="clip0_4460_11074">
<rect width="38" height="38" fill="white"/>
</clipPath>
</defs>
</svg>
