<svg width="18" height="17" viewBox="0 0 18 17" fill="none" xmlns="http://www.w3.org/2000/svg">
<path fill-rule="evenodd" clip-rule="evenodd" d="M7.08005 13.8428H0.779053C0.365053 13.8428 0.0290527 13.5068 0.0290527 13.0928C0.0290527 12.6788 0.365053 12.3428 0.779053 12.3428H7.08005C7.49405 12.3428 7.83005 12.6788 7.83005 13.0928C7.83005 13.5068 7.49405 13.8428 7.08005 13.8428Z" fill="#1890FF"/>
<path fill-rule="evenodd" clip-rule="evenodd" d="M16.1909 4.15039H9.89087C9.47687 4.15039 9.14087 3.81439 9.14087 3.40039C9.14087 2.98639 9.47687 2.65039 9.89087 2.65039H16.1909C16.6049 2.65039 16.9409 2.98639 16.9409 3.40039C16.9409 3.81439 16.6049 4.15039 16.1909 4.15039Z" fill="#1890FF"/>
<mask id="mask0_1408_27" style="mask-type:luminance" maskUnits="userSpaceOnUse" x="0" y="0" width="7" height="7">
<path fill-rule="evenodd" clip-rule="evenodd" d="M0 0.250397H6.2258V6.442H0V0.250397Z" fill="white"/>
</mask>
<g mask="url(#mask0_1408_27)">
<path fill-rule="evenodd" clip-rule="evenodd" d="M3.11276 1.75C2.22376 1.75 1.49976 2.466 1.49976 3.347C1.49976 4.227 2.22376 4.942 3.11276 4.942C4.00276 4.942 4.72576 4.227 4.72576 3.347C4.72576 2.466 4.00276 1.75 3.11276 1.75ZM3.11276 6.442C1.39676 6.442 -0.000244141 5.054 -0.000244141 3.347C-0.000244141 1.64 1.39676 0.25 3.11276 0.25C4.82976 0.25 6.22576 1.64 6.22576 3.347C6.22576 5.054 4.82976 6.442 3.11276 6.442Z" fill="#1890FF"/>
</g>
<path fill-rule="evenodd" clip-rule="evenodd" d="M14.3877 11.458C13.4977 11.458 12.7737 12.174 12.7737 13.054C12.7737 13.935 13.4977 14.65 14.3877 14.65C15.2767 14.65 15.9997 13.935 15.9997 13.054C15.9997 12.174 15.2767 11.458 14.3877 11.458ZM14.3877 16.15C12.6707 16.15 11.2737 14.761 11.2737 13.054C11.2737 11.347 12.6707 9.95799 14.3877 9.95799C16.1037 9.95799 17.4997 11.347 17.4997 13.054C17.4997 14.761 16.1037 16.15 14.3877 16.15Z" fill="#1890FF"/>
</svg>
