<svg width="18" height="18" viewBox="0 0 18 18" fill="none" xmlns="http://www.w3.org/2000/svg">
<g id="heart">
<path id="Vector" d="M15.1979 3.29878L15.1986 3.29948C16.8582 4.99891 16.8556 7.64096 15.2013 9.32702L15.2012 9.32713L9 15.6504L2.79875 9.32713L2.79864 9.32702C1.14411 7.64066 1.14211 4.9986 2.79815 3.30281L2.79916 3.30178C3.18526 2.90477 3.6438 2.59029 4.14802 2.37575C4.65208 2.16128 5.19226 2.05073 5.7376 2.0501C6.76643 2.05022 7.76007 2.44424 8.52121 3.15788L8.99993 3.60673L9.47871 3.15794C10.24 2.44437 11.2337 2.05035 12.2625 2.0501C12.8072 2.05057 13.3467 2.16077 13.8502 2.37473C14.3539 2.58875 14.812 2.90255 15.1979 3.29878Z" stroke="black" stroke-width="1.4"/>
</g>
</svg>
