<svg width="38" height="38" viewBox="0 0 38 38" fill="none" xmlns="http://www.w3.org/2000/svg">
<g clip-path="url(#clip0_4460_11046)">
<rect width="38" height="38" rx="8" fill="#F5F6F7"/>
<path d="M19 24.625C18.6583 24.625 18.375 24.3417 18.375 24V23.1667C18.375 22.825 18.6583 22.5417 19 22.5417C19.3417 22.5417 19.625 22.825 19.625 23.1667V24C19.625 24.3417 19.3417 24.625 19 24.625Z" fill="#9A9EA7"/>
<path d="M19 27.9583C18.6583 27.9583 18.375 27.675 18.375 27.3333V26.5C18.375 26.1583 18.6583 25.875 19 25.875C19.3417 25.875 19.625 26.1583 19.625 26.5V27.3333C19.625 27.675 19.3417 27.9583 19 27.9583Z" fill="#9A9EA7"/>
<path d="M10.6667 27.9583C10.6167 27.9583 10.5667 27.95 10.5167 27.9417C10.1833 27.8583 9.975 27.5167 10.0583 27.1833L10.8917 23.85C10.975 23.5167 11.3083 23.3083 11.65 23.3917C11.9833 23.475 12.1917 23.8167 12.1083 24.15L11.275 27.4833C11.2 27.7667 10.95 27.9583 10.6667 27.9583Z" fill="#9A9EA7"/>
<path d="M27.1272 27.7522C26.8439 27.7522 26.5939 27.5605 26.5189 27.2772L25.6855 23.9439C25.6022 23.6105 25.8022 23.2689 26.1439 23.1855C26.4772 23.1022 26.8189 23.3022 26.9022 23.6439L27.7355 26.9772C27.8189 27.3105 27.6189 27.6522 27.2772 27.7355C27.2272 27.7439 27.1772 27.7522 27.1272 27.7522Z" fill="#9A9EA7"/>
<path d="M15.5865 11.0003C17.8605 11.0003 20.1168 10.9993 22.3731 11.0009C22.9894 11.0013 23.6152 11.4447 23.8458 12.0775C24.054 12.6493 24.2885 13.2109 24.5118 13.7781C24.7762 13.7157 25.0343 13.6567 25.2916 13.5938C25.6314 13.5107 25.9254 13.736 25.9696 14.0414C26.0074 14.3021 26.0141 14.5812 25.9658 14.8384C25.9064 15.1547 25.6539 15.4411 25.2077 15.4359C25.3115 15.8244 25.4277 16.2155 25.5179 16.613C25.5711 16.8476 25.608 17.0919 25.6096 17.3322C25.6184 18.6301 25.6062 19.9282 25.6179 21.226C25.622 21.6824 25.2121 22.0179 24.8647 21.9993C24.5275 21.9812 24.1885 21.9899 23.8505 21.9968C23.4935 22.0041 23.1324 21.6323 23.1408 21.2602C23.1477 20.9503 23.1422 20.6402 23.1422 20.3233C20.3703 20.3233 17.6133 20.3233 14.842 20.3233C14.842 20.5964 14.8564 20.863 14.8388 21.1273C14.8096 21.5668 14.7022 21.821 14.2521 21.9744C14.202 21.9915 14.1455 21.9942 14.0919 21.9945C13.766 21.9962 13.4398 21.9854 13.1144 21.9979C12.7353 22.0125 12.3339 21.6689 12.3337 21.1987C12.3332 19.9453 12.3146 18.6914 12.3412 17.4386C12.3555 16.765 12.5088 16.1077 12.7697 15.4837C12.774 15.4733 12.7703 15.4594 12.7703 15.4371C12.4388 15.4304 12.1871 15.2828 12.0503 14.9596C12.0223 14.8936 12.0059 14.8175 12.0037 14.7454C11.9975 14.542 12.0007 14.3382 12.0017 14.1346C12.0035 13.783 12.3254 13.5173 12.6555 13.5932C12.9093 13.6516 13.1634 13.7085 13.4463 13.7726C13.5115 13.612 13.5836 13.4263 13.6617 13.2434C13.8812 12.7292 14.0677 12.1954 14.3343 11.7087C14.5922 11.2379 15.0485 11.0344 15.5865 11.0003ZM20.025 11.6493C18.6913 11.6493 17.3577 11.6504 16.024 11.6486C15.5952 11.6481 15.2841 11.8501 15.1083 12.2451C14.9305 12.6444 14.786 13.0594 14.6195 13.4643C14.432 13.9202 14.2302 14.3699 14.048 14.8281C13.9981 14.9534 13.9616 15.1046 13.9804 15.2345C14.0143 15.4679 14.1402 15.5433 14.3923 15.5433C17.4468 15.5434 20.5014 15.5434 23.5559 15.5434C23.5928 15.5434 23.6315 15.5509 23.6662 15.542C23.885 15.4856 24.0707 15.3351 23.9574 15.0632C23.8967 14.9178 23.8619 14.761 23.8038 14.6143C23.5238 13.9071 23.2222 13.2084 22.9627 12.4933C22.7494 11.9056 22.3742 11.6229 21.7949 11.6446C21.2179 11.6661 20.6396 11.6493 20.025 11.6493ZM21.4821 17.6354C21.4821 17.8896 21.4792 18.1438 21.483 18.398C21.487 18.6726 21.6124 18.8237 21.848 18.8252C22.505 18.8293 23.1622 18.833 23.8191 18.8219C23.9722 18.8193 24.1357 18.7746 24.1407 18.5518C24.1486 18.2063 24.1842 17.8593 24.162 17.5161C24.1454 17.2596 24.0179 17.1854 23.7545 17.1852C23.1528 17.1847 22.551 17.1867 21.9492 17.1843C21.6686 17.1831 21.5164 17.2259 21.4821 17.6354ZM14.6392 18.8266C15.1185 18.8266 15.5977 18.8281 16.0769 18.826C16.2952 18.825 16.4482 18.6864 16.4334 18.4625C16.4129 18.1524 16.429 17.8398 16.428 17.5282C16.4273 17.3029 16.333 17.189 16.1156 17.1871C15.4521 17.1813 14.7885 17.1828 14.125 17.1865C13.9439 17.1875 13.7962 17.2858 13.7846 17.4719C13.7626 17.8261 13.763 18.1837 13.7839 18.5379C13.795 18.7255 13.9434 18.8212 14.1417 18.8259C14.2952 18.8296 14.4488 18.8266 14.6392 18.8266Z" fill="#9A9EA7"/>
</g>
<defs>
<clipPath id="clip0_4460_11046">
<rect width="38" height="38" fill="white"/>
</clipPath>
</defs>
</svg>
