<svg width="38" height="38" viewBox="0 0 38 38" fill="none" xmlns="http://www.w3.org/2000/svg">
<g clip-path="url(#clip0_4460_11056)">
<rect width="38" height="38" rx="8" fill="#F5F6F7"/>
<path d="M13.1667 15.6667C14.0871 15.6667 14.8333 14.9205 14.8333 14C14.8333 13.0795 14.0871 12.3333 13.1667 12.3333C12.2462 12.3333 11.5 13.0795 11.5 14C11.5 14.9205 12.2462 15.6667 13.1667 15.6667Z" stroke="#9A9EA7" stroke-width="1.5" stroke-linecap="round" stroke-linejoin="round"/>
<path d="M19 15.6667C19.9205 15.6667 20.6666 14.9205 20.6666 14C20.6666 13.0795 19.9205 12.3333 19 12.3333C18.0795 12.3333 17.3333 13.0795 17.3333 14C17.3333 14.9205 18.0795 15.6667 19 15.6667Z" stroke="#9A9EA7" stroke-width="1.5" stroke-linecap="round" stroke-linejoin="round"/>
<path d="M24.8334 15.6667C25.7538 15.6667 26.5 14.9205 26.5 14C26.5 13.0795 25.7538 12.3333 24.8334 12.3333C23.9129 12.3333 23.1667 13.0795 23.1667 14C23.1667 14.9205 23.9129 15.6667 24.8334 15.6667Z" stroke="#9A9EA7" stroke-width="1.5" stroke-linecap="round" stroke-linejoin="round"/>
<path d="M13.1667 25.6667C14.0871 25.6667 14.8333 24.9205 14.8333 24C14.8333 23.0795 14.0871 22.3333 13.1667 22.3333C12.2462 22.3333 11.5 23.0795 11.5 24C11.5 24.9205 12.2462 25.6667 13.1667 25.6667Z" stroke="#9A9EA7" stroke-width="1.5" stroke-linecap="round" stroke-linejoin="round"/>
<path d="M19 25.6667C19.9205 25.6667 20.6666 24.9205 20.6666 24C20.6666 23.0795 19.9205 22.3333 19 22.3333C18.0795 22.3333 17.3333 23.0795 17.3333 24C17.3333 24.9205 18.0795 25.6667 19 25.6667Z" stroke="#9A9EA7" stroke-width="1.5" stroke-linecap="round" stroke-linejoin="round"/>
<path d="M24.8334 15.6667V17.3333C24.8334 17.7754 24.6578 18.1993 24.3452 18.5118C24.0326 18.8244 23.6087 19 23.1667 19H13.1667M13.1667 15.6667V22.3333V15.6667ZM19 15.6667V22.3333V15.6667Z" stroke="#9A9EA7" stroke-width="1.5" stroke-linecap="round" stroke-linejoin="round"/>
</g>
<defs>
<clipPath id="clip0_4460_11056">
<rect width="38" height="38" fill="white"/>
</clipPath>
</defs>
</svg>
